<?xml version="1.0" encoding="UTF-8" standalone="no"?>
<!DOCTYPE svg PUBLIC "-//W3C//DTD SVG 1.1//EN" "http://www.w3.org/Graphics/SVG/1.1/DTD/svg11.dtd">
<svg width="100%" height="100%" viewBox="0 0 1920 3318" version="1.1" xmlns="http://www.w3.org/2000/svg" xmlns:xlink="http://www.w3.org/1999/xlink" xml:space="preserve" xmlns:serif="http://www.serif.com/" style="fill-rule:evenodd;clip-rule:evenodd;stroke-linecap:round;stroke-linejoin:round;stroke-miterlimit:1.5;">
    <g transform="matrix(2.08387,0,0,2.08387,-2376.2,-356.099)">
        <path d="M1600.82,1653.93L1181.85,1262.97L1218.17,768.205L1607.41,1027.7L1960.32,771.664L2014.65,1196.46L1888.58,1424.03L1600.82,1653.93ZM1240.95,998.627L1600.82,1358.5" style="fill:rgb(0,219,171);stroke:rgb(0,219,171);stroke-width:71.19px;"/>
        <path d="M1214.53,979.723L1600.82,1366.02L1994.88,971.961L1986.92,750.62L1600.82,1098.87L1201.99,741.201L1214.53,979.723Z" style="fill:rgb(18,18,18);stroke:rgb(18,18,18);stroke-width:64.18px;"/>
        <path d="M1264.01,634.752L1600.82,971.961L1938.29,635.211L1600.82,297.818L1264.01,634.752Z" style="fill:rgb(0,219,171);stroke:rgb(0,219,171);stroke-width:112.84px;"/>
        <path d="M1600.82,1066.34L2029.25,637.906L1600.82,1066.34L1172.39,637.906L1172.39,1302.02L1600.82,1730.45L2029.25,1302.02L2029.25,631.672L2029.25,1116.87L2029.25,631.672L1600.82,203.241L1172.39,631.672L1172.39,1203.36" style="fill:none;stroke:rgb(217,250,255);stroke-width:64.22px;"/>
    </g>
</svg>
