<?xml version="1.0" encoding="UTF-8" standalone="no"?>
<!DOCTYPE svg PUBLIC "-//W3C//DTD SVG 1.1//EN" "http://www.w3.org/Graphics/SVG/1.1/DTD/svg11.dtd">
<svg width="100%" height="100%" viewBox="0 0 162 162" version="1.1" xmlns="http://www.w3.org/2000/svg" xmlns:xlink="http://www.w3.org/1999/xlink" xml:space="preserve" xmlns:serif="http://www.serif.com/" style="fill-rule:evenodd;clip-rule:evenodd;stroke-linecap:round;stroke-linejoin:round;stroke-miterlimit:1.5;">
    <g transform="matrix(0.909043,0,0,0.960941,-393.366,-199.135)">
        <g>
            <g transform="matrix(1,0,0,-1,0.10874,582.121)">
                <circle cx="521.289" cy="291.061" r="27.586" style="fill:none;stroke:black;stroke-width:4.27px;"/>
                <g transform="matrix(0.75619,0,0,0.75619,127.095,60.4923)">
                    <path d="M521.289,248.113L521.289,206.919" style="fill:none;stroke:black;stroke-width:5.65px;"/>
                </g>
            </g>
            <g>
                <circle cx="521.289" cy="291.061" r="27.586" style="fill:none;stroke:black;stroke-width:4.27px;"/>
                <g transform="matrix(0.75619,0,0,0.75619,127.095,60.4923)">
                    <path d="M521.289,248.113L521.289,206.919" style="fill:none;stroke:black;stroke-width:5.65px;"/>
                </g>
            </g>
        </g>
        <g transform="matrix(0.707107,-0.707107,0.707107,0.707107,-53.3394,453.895)">
            <g transform="matrix(1,0,0,-1,0.10874,582.121)">
                <circle cx="521.289" cy="291.061" r="27.586" style="fill:none;stroke:black;stroke-width:4.16px;"/>
                <g transform="matrix(0.75619,0,0,0.75619,127.095,60.4923)">
                    <path d="M521.289,248.113L521.289,206.919" style="fill:none;stroke:black;stroke-width:5.5px;"/>
                </g>
            </g>
            <g>
                <circle cx="521.289" cy="291.061" r="27.586" style="fill:none;stroke:black;stroke-width:4.39px;"/>
                <g transform="matrix(0.75619,0,0,0.75619,127.095,60.4923)">
                    <path d="M521.289,248.113L521.289,206.919" style="fill:none;stroke:black;stroke-width:5.81px;"/>
                </g>
            </g>
        </g>
        <g transform="matrix(-0.707107,-0.707107,-0.707107,0.707107,1095.57,453.895)">
            <g transform="matrix(1,0,0,-1,0.10874,582.121)">
                <circle cx="521.289" cy="291.061" r="27.586" style="fill:none;stroke:black;stroke-width:4.16px;"/>
                <g transform="matrix(0.75619,0,0,0.75619,127.095,60.4923)">
                    <path d="M521.289,248.113L521.289,206.919" style="fill:none;stroke:black;stroke-width:5.5px;"/>
                </g>
            </g>
            <g>
                <circle cx="521.289" cy="291.061" r="27.586" style="fill:none;stroke:black;stroke-width:4.39px;"/>
                <g transform="matrix(0.75619,0,0,0.75619,127.095,60.4923)">
                    <path d="M521.289,248.113L521.289,206.919" style="fill:none;stroke:black;stroke-width:5.81px;"/>
                </g>
            </g>
        </g>
        <g transform="matrix(6.12323e-17,-1,1,6.12323e-17,230.283,812.404)">
            <g transform="matrix(1,0,0,-1,0.10874,582.121)">
                <circle cx="521.289" cy="291.061" r="27.586" style="fill:none;stroke:black;stroke-width:4.27px;"/>
                <g transform="matrix(0.75619,0,0,0.75619,127.095,60.4923)">
                    <path d="M521.289,248.113L521.289,206.919" style="fill:none;stroke:black;stroke-width:5.65px;"/>
                </g>
            </g>
            <g>
                <circle cx="521.289" cy="291.061" r="27.586" style="fill:none;stroke:black;stroke-width:4.27px;"/>
                <g transform="matrix(0.75619,0,0,0.75619,127.095,60.4923)">
                    <path d="M521.289,248.113L521.289,206.919" style="fill:none;stroke:black;stroke-width:5.65px;"/>
                </g>
            </g>
        </g>
    </g>
</svg>
